<svg xmlns="http://www.w3.org/2000/svg" width="20" height="20" viewBox="0 0 20 20"><defs><style>.a{fill:none;fill-rule:evenodd;}.b,.c{fill:#031c02;}.c{opacity:0.3;}</style></defs><path class="a" d="M0,0H20V20H0Z"/><path class="b" d="M.254,9.938a.77.77,0,0,0,0,1.143.914.914,0,0,0,1.228,0L6.691,6.231a.769.769,0,0,0,.026-1.118L1.942.262A.914.914,0,0,0,.716.213.77.77,0,0,0,.662,1.355l4.213,4.28Z" transform="translate(11.025 15.659) rotate(180)"/><path class="c" d="M1.38.254a.77.77,0,0,0-1.143,0,.914.914,0,0,0,0,1.228L5.088,6.691a.769.769,0,0,0,1.118.026l4.851-4.775a.914.914,0,0,0,.05-1.227A.77.77,0,0,0,9.964.662L5.684,4.875Z" transform="translate(16.736 4.341) rotate(90)"/></svg>