<svg xmlns="http://www.w3.org/2000/svg" width="24" height="24" viewBox="0 0 24 24"><defs><style>.a{fill:none;}.b{fill:#fff;}</style></defs><g transform="translate(0.07 0.07)"><rect class="a" width="24" height="24" transform="translate(-0.07 -0.07)"/><path class="b" d="M13.93,6.468v1a.5.5,0,0,1-.5.5H7.96v5.473a.5.5,0,0,1-.5.5h-1a.5.5,0,0,1-.5-.5V7.96H.5a.5.5,0,0,1-.5-.5v-1a.5.5,0,0,1,.5-.5H5.97V.5a.5.5,0,0,1,.5-.5h1a.5.5,0,0,1,.5.5V5.97h5.473A.5.5,0,0,1,13.93,6.468Z" transform="translate(4.965 4.965)"/></g></svg>