<svg xmlns="http://www.w3.org/2000/svg" width="15" height="19" viewBox="0 0 15 19"><defs><style>.a{fill:#a0a3a0;}</style></defs><g transform="translate(-3.724 -1.723)"><path class="a" d="M10.417,19H4.583a.449.449,0,0,1-.416-.475v-.95a.449.449,0,0,1,.416-.475H6.667V13.3A3.448,3.448,0,0,1,3.45,10.45H3.333A3.593,3.593,0,0,1,0,6.65V2.85A.9.9,0,0,1,.833,1.9h2.5V.95A.9.9,0,0,1,4.167,0h6.666a.9.9,0,0,1,.834.95V1.9h2.5A.9.9,0,0,1,15,2.85v3.8a3.593,3.593,0,0,1-3.333,3.8H11.55A3.448,3.448,0,0,1,8.333,13.3v3.8h2.083a.449.449,0,0,1,.416.475v.95A.449.449,0,0,1,10.417,19ZM5,1.9V9.5a1.8,1.8,0,0,0,1.667,1.9H8.333A1.8,1.8,0,0,0,10,9.5V1.9Zm6.667,1.9V8.55a1.564,1.564,0,0,0,1.178-.558,2.028,2.028,0,0,0,.488-1.342V3.8Zm-10,0V6.65a1.8,1.8,0,0,0,1.666,1.9V3.8Z" transform="translate(3.724 1.723)"/></g></svg>