<svg xmlns="http://www.w3.org/2000/svg" width="20" height="20" viewBox="0 0 20 20"><defs><style>.a{fill:none;}.b{fill:#a0a3a0;}</style></defs><g transform="translate(-0.195 -0.194)"><rect class="a" width="20" height="20" transform="translate(0.194 0.194)"/><path class="b" d="M14.167,15h-5a.834.834,0,0,1-.833-.833V10.833A.834.834,0,0,1,9.166,10h1.667V8.333H4.167V10H5.833a.834.834,0,0,1,.833.833v3.334A.834.834,0,0,1,5.833,15h-5A.834.834,0,0,1,0,14.167V10.833A.834.834,0,0,1,.833,10H2.5V8.333A1.669,1.669,0,0,1,4.167,6.667h2.5V5H5a.834.834,0,0,1-.833-.833V.833A.834.834,0,0,1,5,0h5a.834.834,0,0,1,.833.833V4.167A.834.834,0,0,1,10,5H8.333V6.667h2.5A1.669,1.669,0,0,1,12.5,8.333V10h1.666a.834.834,0,0,1,.833.833v3.334A.834.834,0,0,1,14.167,15ZM10,11.667v1.667h3.334V11.667Zm-8.333,0v1.667H5V11.667Zm4.167-10V3.333H9.166V1.666Z" transform="translate(2.194 2.194)"/></g></svg>