<svg xmlns="http://www.w3.org/2000/svg" width="20" height="20" viewBox="0 0 20 20"><defs><style>.a{fill:none;}.b{fill:#a0a3a0;stroke:#a0a3a0;stroke-width:0.35px;}</style></defs><g transform="translate(166.779 -329.056) rotate(90)"><rect class="a" width="20" height="20" transform="translate(329.056 146.779)"/><g transform="translate(330.659 150.305)"><g transform="translate(0 0)"><path class="b" d="M15.421,61H1.486A1.488,1.488,0,0,0,0,62.486v9.907a1.488,1.488,0,0,0,1.486,1.486H15.421a1.488,1.488,0,0,0,1.486-1.486V62.486A1.488,1.488,0,0,0,15.421,61ZM.991,64.963H2.477a.5.5,0,0,1,.5.5v3.963a.5.5,0,0,1-.5.5H.991Zm6.968,7.925H1.486a.5.5,0,0,1-.5-.5V70.907H2.477a1.488,1.488,0,0,0,1.486-1.486V65.458a1.488,1.488,0,0,0-1.486-1.486H.991V62.486a.5.5,0,0,1,.5-.5H7.958v3.022a2.477,2.477,0,0,0,0,4.854Zm-.991-5.449a1.486,1.486,0,1,1,1.486,1.486A1.488,1.488,0,0,1,6.968,67.439Zm8.949,2.477H14.431a.5.5,0,0,1-.5-.5V65.458a.5.5,0,0,1,.5-.5h1.486Zm0-5.944H14.431a1.488,1.488,0,0,0-1.486,1.486v3.963a1.488,1.488,0,0,0,1.486,1.486h1.486v1.486a.5.5,0,0,1-.5.5H8.949V69.866a2.477,2.477,0,0,0,0-4.854V61.991h6.472a.5.5,0,0,1,.5.5Z" transform="translate(0 -61)"/></g></g></g></svg>