<svg xmlns="http://www.w3.org/2000/svg" width="24" height="24" viewBox="0 0 24 24"><defs><style>.a{fill:none;}.b{fill:#031c02;}</style></defs><g transform="translate(-25 -69)"><rect class="a" width="24" height="24" transform="translate(25 69)"/><g transform="translate(-46 14)"><path class="b" d="M1.5,0A1.5,1.5,0,1,0,3,1.5,1.5,1.5,0,0,0,1.5,0Z" transform="translate(76 66)"/><path class="b" d="M1.5,3A1.5,1.5,0,1,0,0,1.5,1.5,1.5,0,0,0,1.5,3Z" transform="translate(82 60)"/><path class="b" d="M1.5,0A1.5,1.5,0,1,0,3,1.5,1.5,1.5,0,0,0,1.5,0Z" transform="translate(82 72)"/></g></g></svg>