<svg xmlns="http://www.w3.org/2000/svg" width="20" height="20" viewBox="0 0 20 20"><defs><style>.a{fill:none;}.b{fill:#a0a3a0;}</style></defs><g transform="translate(-0.123 -0.123)"><rect class="a" width="20" height="20" transform="translate(0.123 0.123)"/><path class="b" d="M8.088,16.884H3.867a.423.423,0,0,1-.422-.422v-.844a.423.423,0,0,1,.422-.422H5.1v-1.7A6.78,6.78,0,0,1,.034,10.054a.436.436,0,0,1,0-.337.4.4,0,0,1,.22-.253l.768-.355a.415.415,0,0,1,.541.177,5.073,5.073,0,0,0,4.4,2.56h.053a5.069,5.069,0,0,0,4.4-2.652.354.354,0,0,1,.312-.186.35.35,0,0,1,.152.035l.887.413a.33.33,0,0,1,.185.211.318.318,0,0,1-.068.279v.068a6.774,6.774,0,0,1-5.065,3.436V15.2H8.088a.423.423,0,0,1,.422.422v.844A.423.423,0,0,1,8.088,16.884ZM5.978,10.13A3.381,3.381,0,0,1,2.6,6.754V3.376a3.377,3.377,0,0,1,6.754,0V6.754A3.38,3.38,0,0,1,5.978,10.13Zm0-8.442A1.691,1.691,0,0,0,4.289,3.376V6.754a1.689,1.689,0,0,0,3.377,0V3.376A1.69,1.69,0,0,0,5.978,1.688Z" transform="translate(4.146 1.681)"/></g></svg>