<svg xmlns="http://www.w3.org/2000/svg" width="24" height="24" viewBox="0 0 24 24"><defs><style>.a{fill:none;}.b{fill:#f5b553;}</style></defs><rect class="a" width="24" height="24"/><path class="b" d="M9.6,22H8.4A2.011,2.011,0,0,1,7.17,21.58L3.09,18.4A8,8,0,0,1,0,12.09V6.24A3.017,3.017,0,0,1,.88,4.12L4.41.59A2.017,2.017,0,0,1,5.83,0h6.34a2.017,2.017,0,0,1,1.42.59l3.53,3.53A3.017,3.017,0,0,1,18,6.24v5.85a8,8,0,0,1-3.09,6.31L10.83,21.58A2.012,2.012,0,0,1,9.6,22ZM5.83,2h0L2.29,5.54a.993.993,0,0,0-.29.7v5.85a5.962,5.962,0,0,0,2.32,4.73L8.4,20H9.6l4.08-3.18A5.962,5.962,0,0,0,16,12.09V6.24a.993.993,0,0,0-.29-.7L12.17,2ZM9.5,15h-1a.5.5,0,0,1-.5-.5v-1a.5.5,0,0,1,.5-.5h1a.5.5,0,0,1,.5.5v1A.5.5,0,0,1,9.5,15ZM8.468,11a.25.25,0,0,1-.248-.22l-.4-3.22a.5.5,0,0,1,.5-.56H9.68a.5.5,0,0,1,.5.56l-.4,3.22a.25.25,0,0,1-.248.22H8.468Z" transform="translate(3 1)"/></svg>